<svg xmlns="http://www.w3.org/2000/svg" width="15" height="15" viewBox="0 0 15 15">
	<path fill-rule="evenodd" clip-rule="evenodd" d="M7.52481 0C3.36108 0 0 3.43995 0 7.70138C0 11.09 2.15711 13.9652 5.16703 14.992C5.56836 15.0434 5.66869 14.838 5.66869 14.6326V13.2977C3.56174 13.7598 3.11025 12.2709 3.11025 12.2709C2.7591 11.398 2.25744 11.1413 2.25744 11.1413C1.55513 10.6792 2.30761 10.6792 2.30761 10.6792C3.06009 10.7306 3.46141 11.4494 3.46141 11.4494C4.11356 12.6303 5.2172 12.2709 5.66869 12.0655C5.71885 11.5521 5.91951 11.244 6.17034 11.0386C4.51488 10.8333 2.7591 10.1658 2.7591 7.2393C2.7591 6.41782 3.06009 5.69902 3.51158 5.1856C3.41125 4.98023 3.16042 4.21009 3.56174 3.13189C3.56174 3.13189 4.21389 2.92652 5.61852 3.90203C6.22051 3.74801 6.87266 3.64532 7.52481 3.64532C8.17695 3.64532 8.8291 3.74801 9.43109 3.90203C10.8859 2.92652 11.4879 3.13189 11.4879 3.13189C11.8892 4.21009 11.6384 4.98023 11.538 5.1856C12.0397 5.69902 12.2905 6.41782 12.2905 7.2393C12.2905 10.2172 10.5347 10.8333 8.87927 11.0386C9.1301 11.2954 9.38092 11.7574 9.38092 12.4762V14.5813C9.38092 14.7867 9.53142 15.0434 9.88258 14.9407C12.8925 13.9138 14.9994 11.0386 14.9994 7.65004C15.0496 3.43995 11.6885 0 7.52481 0Z"></path>

	<style>
		path {
			fill: #24292e;
		}

		@media (prefers-color-scheme: dark) {
			path {
				fill: #ffffff;
			}
		}
	</style>
</svg>
