<svg fill="#0A66C2" xmlns="http://www.w3.org/2000/svg" width="15" height="15" viewBox="0 0 15 15">
	<path d="M12.7807 12.781H10.5582V9.30032C10.5582 8.47031 10.5434 7.40184 9.40224 7.40184C8.24467 7.40184 8.06756 8.30616 8.06756 9.23989V12.7808H5.84502V5.62306H7.97865V6.60124H8.00852C8.22205 6.23614 8.5306 5.93579 8.90131 5.73218C9.27203 5.52857 9.69103 5.42933 10.1137 5.44502C12.3663 5.44502 12.7816 6.92676 12.7816 8.85441L12.7807 12.781ZM3.33727 4.64465C3.08218 4.6447 2.83279 4.56909 2.62067 4.42741C2.40854 4.28572 2.24321 4.08431 2.14554 3.84864C2.04788 3.61298 2.02229 3.35365 2.07201 3.10344C2.12173 2.85323 2.24453 2.62339 2.42488 2.44298C2.60522 2.26256 2.83501 2.13968 3.08519 2.08986C3.33537 2.04005 3.5947 2.06555 3.83039 2.16313C4.06608 2.26071 4.26754 2.42599 4.4093 2.63807C4.55106 2.85015 4.62675 3.09951 4.6268 3.35461C4.62683 3.52399 4.59349 3.69172 4.52871 3.84822C4.46392 4.00471 4.36895 4.14692 4.24921 4.26671C4.12946 4.3865 3.98729 4.48153 3.83082 4.54638C3.67435 4.61123 3.50664 4.64462 3.33727 4.64465V4.64465ZM4.44853 12.781H2.22369V5.62306H4.44853V12.781ZM13.8887 0.00102197H1.10687C0.816756 -0.00225205 0.537199 0.10979 0.32965 0.312526C0.122101 0.515263 0.00354066 0.792108 0 1.08223V13.9176C0.00341948 14.2078 0.121911 14.4848 0.329452 14.6878C0.536994 14.8907 0.816613 15.003 1.10687 14.9999H13.8887C14.1796 15.0036 14.46 14.8916 14.6683 14.6887C14.8767 14.4857 14.996 14.2084 15 13.9176V1.0813C14.9959 0.790607 14.8765 0.513447 14.6681 0.310715C14.4597 0.107983 14.1794 -0.00373839 13.8887 9.55136e-05"></path>
</svg>
